<?xml version="1.0"?>
<svg xmlns="http://www.w3.org/2000/svg" viewBox="0 0 200 200" width="512" height="512" role="img" aria-label="Temir Xotin">
  <defs>
    <pattern id="dotsf" width="4" height="4" patternUnits="userSpaceOnUse">
      <circle cx="2" cy="2" r=".8" fill="#1a1816" opacity=".45"></circle>
    </pattern>
  </defs>
  <rect x="0" y="0" width="200" height="200" rx="0" fill="#efe8d8"></rect>
  <rect x="12" y="12" width="176" height="176" rx="0" fill="url(#dotsf)" opacity=".5"></rect>
  <g transform="translate(100 108)">
    <g transform="rotate(-30)">
      <rect x="-58" y="-6" width="106" height="12" fill="#1a1816"></rect>
      <circle cx="-58" cy="0" r="16" fill="#1a1816"></circle>
      <circle cx="-58" cy="0" r="7" fill="#efe8d8"></circle>
      <path d="M48 -12 L60 -18 L68 -10 L68 10 L60 18 L48 12 Z" fill="#1a1816"></path>
      <circle cx="58" cy="0" r="6" fill="#efe8d8"></circle>
    </g>
    <g transform="rotate(30)">
      <rect x="-54" y="-5" width="42" height="10" fill="#1a1816"></rect>
      <rect x="-12" y="-8" width="20" height="16" fill="#1a1816"></rect>
      <rect x="8" y="-6" width="26" height="12" fill="#1a1816"></rect>
      <rect x="34" y="-10" width="10" height="20" fill="#1a1816"></rect>
      <rect x="44" y="-4" width="16" height="8" fill="#1a1816"></rect>
    </g>
  </g>
  <text x="100" y="56" font-family="Antonio, Impact, sans-serif" font-weight="700" font-size="24" text-anchor="middle" fill="#1a1816" letter-spacing="2">TEMIR XOTIN</text>
</svg>