<?xml version="1.0"?>
<svg xmlns="http://www.w3.org/2000/svg" viewBox="0 0 160 200" width="1024" height="1280" role="img" aria-label="Temir Xotin">
  <defs>
    <pattern id="dots" width="4" height="4" patternUnits="userSpaceOnUse">
      <circle cx="2" cy="2" r=".8" fill="#1a1816" opacity=".5"></circle>
    </pattern>
  </defs>
  <path d="M80 4 L156 100 L80 196 L4 100 Z" fill="#efe8d8"></path>
  <path d="M80 14 L146 100 L80 186 L14 100 Z" fill="none" stroke="#1a1816" stroke-width="1.2"></path>
  <path d="M80 14 L146 100 L80 186 L14 100 Z" fill="url(#dots)" opacity=".4"></path>
  <g transform="translate(80 110) rotate(-30)">
    <rect x="-50" y="-5" width="92" height="10" fill="#1a1816"></rect>
    <circle cx="-50" cy="0" r="14" fill="#1a1816"></circle>
    <circle cx="-50" cy="0" r="6" fill="#efe8d8"></circle>
    <path d="M42 -10 L52 -16 L60 -8 L60 8 L52 16 L42 10 Z" fill="#1a1816"></path>
    <circle cx="50" cy="0" r="5" fill="#efe8d8"></circle>
  </g>
  <g transform="translate(80 110) rotate(30)">
    <rect x="-46" y="-4" width="36" height="8" fill="#1a1816"></rect>
    <rect x="-10" y="-7" width="18" height="14" fill="#1a1816"></rect>
    <rect x="8" y="-5" width="22" height="10" fill="#1a1816"></rect>
    <rect x="30" y="-8" width="8" height="16" fill="#1a1816"></rect>
    <rect x="38" y="-3" width="14" height="6" fill="#1a1816"></rect>
  </g>
  <text x="80" y="60" font-family="Antonio, Impact, sans-serif" font-weight="700" font-size="22" text-anchor="middle" fill="#1a1816" letter-spacing="2">TEMIR XOTIN</text>
</svg>